# xmcd
#
# Track frame offsets:
#	150
#	11020
#	24745
#	36375
#	49985
#	62442
#	75454
#	86706
#	102253
#	117358
#
# Disc length: 1812 seconds
#
# Revision: 0
# Processed by: cddbd v1.5.2PL0 Copyright (c) Steve Scherf et al.
# Submitted via: EasyCDDAExtractor 11.9.9.666
#
DISCID=7c07120a
DTITLE=Various Artist - Sunny Side Of The Mountain
DYEAR=2012
DGENRE=Gusto
TTITLE0=Porter Wagoner - Sunny Side Of The Mountain
TTITLE1=Porter Wagoner with Pam Gadd - Don't Let Me Cross Over
TTITLE2=Porter Wagoner - Something Got A Hold Of Me
TTITLE3=Porter Wagoner with Penny Dehaven - We Don't Want The World
TTITLE4=Porter Wagoner - The Divers Are Out Tonight
TTITLE5=Porter Wagoner with Pam Gadd - Bury Me Beneath The Willow
TTITLE6=Porter Wagoner - Boll Weevil
TTITLE7=Porter Wagoner with Pam Gadd - Charlie And Nellie
TTITLE8=Porter Wagoner - Life's Other Side
TTITLE9=Porter Wagoner - Prisoner Song
EXTD=
EXTT0=
EXTT1=
EXTT2=
EXTT3=
EXTT4=
EXTT5=
EXTT6=
EXTT7=
EXTT8=
EXTT9=
PLAYORDER=
